<svg width="280" height="200" xmlns="http://www.w3.org/2000/svg">
  <!-- Frame -->
  <rect width="280" height="200" fill="#F4F4F7" rx="10"/>
  <!-- Top bar -->
  <rect width="280" height="32" fill="#FFFFFF" rx="10 10 0 0"/>
  <line x1="0" y1="32" x2="280" y2="32" stroke="#E8E8EC" stroke-width="1"/>
  <circle cx="16" cy="16" r="4" fill="#CFD0DA"/>
  <circle cx="30" cy="16" r="4" fill="#CFD0DA"/>
  <circle cx="44" cy="16" r="4" fill="#CFD0DA"/>
  <!-- Overlay - blocked -->
  <rect x="0" y="32" width="88" height="168" fill="#111119" opacity="0.22"/>
  <!-- Blocked cursor indicator on overlay -->
  <circle cx="44" cy="116" r="16" fill="#E8392A" opacity="0.15"/>
  <circle cx="44" cy="116" r="13" fill="none" stroke="#E8392A" stroke-width="2"/>
  <line x1="34.8" y1="106.8" x2="53.2" y2="125.2" stroke="#E8392A" stroke-width="2" stroke-linecap="round"/>
  <!-- Drawer panel -->
  <rect x="88" y="32" width="192" height="168" fill="#FFFFFF"/>
  <!-- Header -->
  <line x1="88" y1="60" x2="280" y2="60" stroke="#E8E8EC" stroke-width="1"/>
  <rect x="102" y="42" width="80" height="8" fill="#111119" rx="4"/>
  <!-- X button (only exit, hard to notice) -->
  <line x1="256" y1="40" x2="266" y2="50" stroke="#CFD0DA" stroke-width="1.8" stroke-linecap="round"/>
  <line x1="266" y1="40" x2="256" y2="50" stroke="#CFD0DA" stroke-width="1.8" stroke-linecap="round"/>
  <!-- Form fields -->
  <rect x="102" y="70" width="50" height="6" fill="#CFD0DA" rx="3"/>
  <rect x="102" y="82" width="162" height="22" rx="4" fill="none" stroke="#E8E8EC" stroke-width="1.5"/>
  <rect x="102" y="112" width="60" height="6" fill="#CFD0DA" rx="3"/>
  <rect x="102" y="124" width="162" height="22" rx="4" fill="none" stroke="#E8E8EC" stroke-width="1.5"/>
  <!-- Footer divider -->
  <line x1="88" y1="158" x2="280" y2="158" stroke="#E8E8EC" stroke-width="1"/>
  <!-- Empty footer - no buttons -->
  <rect x="102" y="167" width="162" height="24" rx="5" fill="#E8392A" opacity="0.08"/>
  <line x1="120" y1="179" x2="246" y2="179" stroke="#E8392A" stroke-width="1.5" stroke-dasharray="4 3" opacity="0.4"/>
</svg>
